<svg xmlns="http://www.w3.org/2000/svg" id="Layer_12" viewBox="2 36 60 26"><path d="m59,45v-4l-5,3H17.93c-5.05,0-9.87,2.12-13.28,5.86l-1.65,1.8v6.34h50.64l7.36-4v-6l-2-3Z" style="fill: #ff5a5c;"/><path d="m59,45v-4l-5,3h-14v2c0,3.314-2.686,6-6,6H3v6h50.64l7.36-4v-6l-2-3Z" style="fill: #ed2224;"/><path d="m35.046,37c-2.164,0-4.287.585-6.146,1.693l-8.9,5.307h20v-7h-4.954Z" style="fill:#d1e7f8;"/><path d="m44.314,37h-4.314v7h14l-8.458-6.579c-.351-.273-.783-.421-1.228-.421Z" style="fill:#d1e7f8;"/><circle cx="46" cy="56" r="5" style="fill:#414042;"/><circle cx="16" cy="56" r="5" style="fill:#414042;"/><polygon points="6 55 8 52 3 52 3 55 6 55" style="fill:#f1f2f2;"/><polygon points="58 51 61 51 61 48 56 48 58 51" style="fill: #ed2224;"/><path d="m61.83,47.45l-1.83-2.75v-3.7c0-.36-.19-.69-.51-.87-.31-.18-.7-.17-1,.01l-4.42,2.65-7.91-6.16c-.53-.41-1.18-.63-1.85-.63h-9.26c-2.35,0-4.65.63-6.66,1.83l-8.67,5.17h-1.79c-5.32,0-10.43,2.25-14.02,6.18l-1.65,1.8c-.17.19-.26.43-.26.68v6.34c0,.55.45,1,1,1h7.81c1.04,1.79,2.97,3,5.19,3s4.15-1.21,5.19-3h19.62c1.04,1.79,2.97,3,5.19,3s4.15-1.21,5.19-3h2.45c.17,0,.33-.04.48-.12l7.36-4c.32-.18.52-.51.52-.88v-6c0-.2-.06-.39-.17-.55Zm-20.83-9.45h3.31c.23,0,.44.08.62.21l6.15,4.79h-10.08v-5Zm-11.59,1.55c1.71-1.01,3.65-1.55,5.64-1.55h3.95v5h-15.37l5.78-3.45Zm-25.41,13.45h2.13l-.67,1h-1.46v-1Zm12,7c-2.21,0-4-1.79-4-4s1.79-4,4-4,4,1.79,4,4-1.79,4-4,4Zm30,0c-2.21,0-4-1.79-4-4s1.79-4,4-4,4,1.79,4,4-1.79,4-4,4Zm14-6.59l-6.61,3.59h-1.48c.05-.33.09-.66.09-1,0-3.31-2.69-6-6-6s-6,2.69-6,6c0,.34.04.67.09,1h-18.18c.05-.33.09-.66.09-1,0-3.31-2.69-6-6-6s-6,2.69-6,6c0,.34.04.67.09,1h-6.09v-1h2c.33,0,.65-.17.83-.45l2-3c.21-.3.23-.7.05-1.02-.17-.33-.51-.53-.88-.53h-3.04l.43-.47c3.21-3.51,7.78-5.53,12.54-5.53h36.07c.07,0,.4-.08.51-.14l3.49-2.09v2.23c0,.2.06.39.17.55l.96,1.45h-3.13c-.37,0-.71.2-.88.53-.18.32-.16.72.05,1.02l2,3c.18.28.5.45.83.45h2v1.41Zm0-3.41h-1.46l-.67-1h2.13v1Z" style="fill: #F6D400;"/><path d="m39,47h-2c-.553,0-1,.448-1,1s.447,1,1,1h2c.553,0,1-.448,1-1s-.447-1-1-1Z" style="fill:#ed2224;"/></svg>