<?xml version="1.0" encoding="utf-8"?>
<!-- Generator: Adobe Illustrator 27.3.1, SVG Export Plug-In . SVG Version: 6.00 Build 0)  -->
<svg version="1.1"
	 id="OBJECTS" xmlns:svg="http://www.w3.org/2000/svg" xmlns:cc="http://creativecommons.org/ns#" xmlns:inkscape="http://www.inkscape.org/namespaces/inkscape" xmlns:sodipodi="http://sodipodi.sourceforge.net/DTD/sodipodi-0.dtd" xmlns:dc="http://purl.org/dc/elements/1.1/" xmlns:rdf="http://www.w3.org/1999/02/22-rdf-syntax-ns#"
	 xmlns="http://www.w3.org/2000/svg" xmlns:xlink="http://www.w3.org/1999/xlink" x="0px" y="0px" width="500px" height="500px"
	 viewBox="0 0 500 500" enable-background="new 0 0 500 500" xml:space="preserve">
<g id="g182">
	<path id="path169_00000134939514780649594820000003769374007125356476_" fill="#F7F7F7" d="M379.8,127.5
		c-11.7,0.2-23.6,3.8-29.5,11.4c-7.5,9.6-0.8,48.2-3.7,50.2c-5.9,4.2-16.1-4.5-23.4,0c-10.1,6.3,2.5,28.3-8.9,35.7
		c-1.8,1.2-19.7,7.7-27.9,10.8c0.8-0.7,1.6-1.4,2.2-1.8c4.2-3.4,10.8-10.2,11-15.9c0.1-4.7-4.3-9.6-5-14.3c-0.8-5.1,8-11.3,10-15.8
		c5.1-11.7-2.1-9.6-3.7-16.4c-0.3-1.3,11.9-7.5,7.8-17.4c-3.7-8.9-17.3-12.7-26.2-10.7c-1.2,0.3-3.3,3.8-3.5,3.8
		c-1.2,0-0.9-2.4-2-2.9c-8.2-3.8-16.7-2.1-24.9,1.2c-11.1,4.5-18.8,9.6-21.1,21.8c-0.8,4.4-0.2,10,0.1,14.5c0.1,1.8,1.8,6.6,0.4,5.5
		c-7.3-5.2-22.9-3-25.6,6.7c-1.4,5,3.3,12.8,0.4,16.8c-1.1,1.5-7.8-0.3-9.8,0.9c-2.4,1.4-4.8,4.1-6.6,6.2c-6.4,7.3,0.1,16.9-2,25.4
		c-0.7,3-22.4,17.7-25.7,19.8c-3.4,2.1-7.6,4.9-7.4,5c2.2,1,10.1-3.3,12-3.9c9.1-2.7,19-3.3,27.7-7c5-2.1,6.1-7.6,12.3-9.8
		c0.6-0.2,9.9-3.3,10.3-2.9c4.2,5.8,7,15.3,16.6,11.3c7-2.9,3.2-17,12-10.9c9.1,6.3-9.5,15-1.8,23c7.3,7.5,22.8-7.2,22.4,9.8
		c-0.2,6.6-8,12.5-14.5,11.6c-7.2-1-13.4-6.3-19.9,0.1c-3,3-3.4,8.2-7.7,10.1c-5.7,2.6-12.2-1.4-18.3,0c-5.9,1.3-7.2,11.5-12.6,14.1
		c-6.5,3.1-14.1,2.7-20.5,5.6c-7.3,3.3-24.4,9.7-24.4,10c0,1.9,49.6-6.6,52.8-7.4c1.7-0.4,10.8-3.8,10.6,0.2c-0.1,3-2.6,5.3-4.6,7.2
		c-17.2,16.7-35.6,1.9-45.1,10.1c-22.6,19.3-20.6-24.4-51.5-15.2c-16.1,4.8-10.2,17.2-15.9,23.2c-0.4,0.4-13-3.5-17.6-1.9
		c-4.8,1.6-6.9,7.6-11.1,9.5c-2.5,1.1-8.7-1.4-10.6,0.3c-2.2,2-3.7,4.8-5.5,7c-4.5,5.3-22.1,5.3-28.3,6.8c11.1-1.4,23.1,4.6,34,3.8
		c5.7-0.4,12.3-3.1,17.6-4.5c12.5-3.3,26.7-6.9,39.6-7.9c8.6-0.6,17.8,3.9,26.1,2.1c6.4-1.4,12.3-4,18.9-4.8
		c27.3-3.2,48.5-0.7,76.6-7.8c13.3-3.4,26.1-8.4,38.7-13.6c7.7-3.2,19-11.6,27.4-11.6c0.3,0-3.7,4.9-3.9,5.1
		c-4.5,4.5-9.4,8.9-14.5,12.6c-9.2,6.7-20.7,12.4-31.9,14.9c-3.9,0.9-7.6,0.9-11.3,2.4c-1.5,0.6-6,2.4-4.4,2.4
		c2.8,0,5.8-0.3,8.6-0.1c5.7,0.4,11.8,1.9,17.6,1c8.4-1.4,16.2-5.8,24.3-8.6c5-1.8,11.1-0.1,15.8-2.8c2.6-1.5,2.4-4.6,4.4-6.6
		c2.9-2.9,7.4-3.1,10.4-5.7c0.8-0.7,6.6,3.9,9,2.9c3.3-1.4,6-9.8,8.9-10.2c4.3-0.6,8,4.7,13,3.1c4.8-1.5,10.8-7.2,16.3-5.1
		c10.9,4.2-11.5,12.9-9.9,17c3,7.7,27.5-9.4,17.6,2.3c-2.7,3.2-17.9,11.6-22.6,13c0.2,0.1,0.5,0.1,0.6,0.1c11.7,0.3,23-0.5,33.7-6
		c3.2-1.6,7.3-10.1,9.9-10.1c4.7,0,9.5,6.4,17.8,3.2c2.9-1.1,6.2-3.4,7.9-6.1c0.6-1,1.8-5.9,1.8-5.9c2.5,0,5,1.6,7.7,1.6
		c7.9-0.1,17-7,20.8-13.8c2.8-5.1-6.3-12.3-3.7-16.7c4-6.7,13.9-8.4,18.3-15.4c1.2-1.9,3.3-6,2.5-8.3c-0.1-0.3-3.3-4-3-4.4
		c6.2-5.6,15.3-6.8,16.4-16.8c1.4-13.3-14.3-17.6-13.8-24.5c0-0.4,0.1-0.8,0.2-1.2c-3.7,1.6-7.5,3.5-9.5,2.8
		c-2.9-1.1-3.7-5.2-7.7-4.9c-11.3,0.8-5.2,8.4-5.8,14.8c-0.5,5-4.5,12.7-8.1,15.9c-6.7,6-24.6-2.1-31.6-2.8
		c-11.8-1.1-22.7,5.3-31.4,13.1c-0.3,0.3,0.4-0.7,0.7-1c1.6-1.9,3.6-3,5.5-4.4c5.1-3.7,7-6.5,10.7-11.3c14.9-18.9,28.3,6.5,43.3-1.2
		c3.1-1.6,3.2-11.6,1.9-14.5c-1.6-3.8-3.6,4.1-5,5c-2.2,1.5-6.8-1.8-8-3.5c-1.7-2.3,1.6-16.2,3.4-18.3c10-11.5,30.2-0.5,42-1
		c1.6-0.1,3.1-0.3,4.7-0.7c0.5-1.3,1-2.7,1.1-4c1.7-14.7-2.3-29.8-10.3-42.2c-2.9-4.6-8.4-3.9-11.4-6.7c-7-6.3-15.4-24.1-24.1-32.7
		c-9.5-9.4-19.3-6.1-21.4-7.4C397.9,129.3,388.9,127.4,379.8,127.5L379.8,127.5z M347.6,362.2c-0.7-0.2-1.5-0.5-1.5,0
		C346.1,362.5,346.8,362.4,347.6,362.2z"/>
	<path id="path174_00000067936759982856056210000002420882319257766299_" fill="#E9E9E9" d="M465.9,243.1c-2.2,2.9-1.8,7.9-3.4,10.9
		c-1.1,1.9-6.3-0.6-8.2,1.1c-0.7,0.7,0.1,2.3-0.1,3.2c-0.8,2.9-1.4,6.1-2.4,8.9c-2.4,6.8-10.4,10.7-16.9,11.7
		c-2.6,0.4,4.7,2.9,7.4,2.8c3.6-0.1,6.2-2.5,7.6-5.6c-0.2,0.4-0.3,0.7-0.7,1.9c-0.9,2.6,0.6,6.3-0.8,8.5c-2.5,3.9-8.5,2-10.8,6.7
		c-0.7,1.5-2.3,9.4-5.4,8.8c-1.7-0.3-0.3-4.7-0.4-5.7c-0.5-3.2-5.5-5.4-7.7-2.7c-2.6,3.1-2.7,8.5-4.5,12.2c-2.9,6-9,10.8-15.9,10.4
		c-1.5-0.1-3.3-1-4.8-0.9c-0.9,0.1,0.9,1.7,1.7,2.3c1.6,1.3,3.8,2.7,5.8,3.3c0.4,0.1,5.9,0.7,7.7-0.7c-0.1,0.7-0.3,1.4-0.7,2.2
		c-1.9,3.9-6.3,6.5-9.7,9c-1.2,0.9-3.5,0.9-4.9,1.3c-9.4,2.7-3.2-2.3-7.8-3.8c-6.1-1.9-10,8.1-11.3-3.8c-0.5-4.6,5.5-6.6,5.8-10.8
		c0.2-2.3-2.8-3.5-2.9-5.5c0-0.9,2.8-4.4,3.2-5.2c1.1-2.4,0.9-4.8-1.2-6.5c-0.5-0.4-3.4-0.1-2.4-1.1c2.8-2.7,4.2-4.1,5.1-8.1
		c0.4-1.7,1-3.6,1.8-5.2c0.1-0.3,1-0.7,0.6-0.7c-4.1,0-13.9,10.6-24.5,10.1c-6-0.3-10.3-3.2-15-6.7c-1.2-0.9-3.8-4.1-3.8-2.5
		c0,4.4,11.5,17.7,16.3,17.6c2.9,0,4.4-2,6.8-3c2.2-0.9,0.9,9,0.4,10.5c-1.2,3.1-11.3,8.2-14.4,5.4c-1.5-1.3-1.2-4-3.6-4.6
		c-5-1.3-7.4,6.3-9.9,8.5c-0.3,0.3,0.1-2.6-1-4.6c-0.5-0.9-1.9-1.1-2.8-1.3c-3.2-0.7-10.2,2.9-12.7,4.6c-3.7,2.4-6.9,6-8,10.4
		c-0.2,0.8,0,2.7-0.5,3.3c-0.7,0.8-3.8-0.1-4.8-0.1c-1.8,0-4.2,0.8-5.8,1.8c-3.6,2.3-5.9,7.9-9.1,10.8c-3.3,3.1-9.3,1.6-13.2,4.2
		c-4.4,3-7.4,7.3-11.5,10.5c-2.5,2-6.1,3.7-10,5.2c7.7-1.7,15-5.6,22.4-8.2c5-1.8,11.1-0.1,15.8-2.8c2.6-1.5,2.4-4.6,4.4-6.6
		c2.9-2.9,7.4-3.1,10.4-5.7c0.8-0.7,6.6,3.9,9,2.9c3.3-1.4,6-9.8,8.9-10.2c4.3-0.6,8,4.7,13,3.1c4.8-1.5,10.8-7.2,16.3-5.1
		c10.9,4.2-11.5,12.9-9.9,17c3,7.7,27.5-9.4,17.6,2.3c-2.7,3.2-17.9,11.6-22.6,13c0.2,0.1,0.5,0.1,0.6,0.1c11.7,0.3,23-0.5,33.7-6
		c3.2-1.6,7.3-10.1,9.9-10.1c4.7,0,9.5,6.4,17.8,3.2c2.9-1.1,6.2-3.4,7.9-6.1c0.6-1,1.8-5.9,1.8-5.9c2.5,0,5,1.6,7.7,1.6
		c7.9-0.1,17-7,20.8-13.8c2.8-5.1-6.3-12.3-3.7-16.7c4-6.7,13.9-8.4,18.3-15.4c1.2-1.9,3.3-6,2.5-8.3c-0.1-0.3-3.3-4-3-4.4
		c6.2-5.6,15.3-6.8,16.4-16.8C479.6,253.1,469.6,248.2,465.9,243.1z M347.6,362.2c-0.7-0.2-1.5-0.5-1.5,0
		C346.1,362.5,346.8,362.4,347.6,362.2z M450.6,274.3c0.1-0.3-0.3,0.6-0.4,0.9c-1.1,3.3-0.3,1-0.2,0.4
		C450.2,275.1,450.5,274.7,450.6,274.3z M315.7,303.6c-0.3-0.3-10.2,6.1-10.6,6.4c-5.3,3.4-31.4,15.1-37.3,13
		c-4.9-1.8-7.2-1.2-12.1,2c-1,0.6-1.5,2.1-2.5,2.6c-0.9,0.5-8.4-1.9-9.9-1.6c-5,0.8-6.9,7.6-11.9,8.6c-2.3,0.4-5.2,0.9-7.5,0.9
		c-3.9-0.1-6.5-2.5-10.4-1.2c-8,2.7-6.7,8.8-14.3,11.6c-1.8,0.7-3.7-0.7-5.5-0.3c-2.9,0.7-5.7,1.9-8.6,2.7c-3,0.8-7.9,5.9-11,5.1
		c-1.2-0.3-1.6-1.3-2.5-2.1c-2.9-2.5-7.8-2.3-11.4-2c-3.3,0.2-6.5,4.1-9.4,3.9c-2.7-0.2-3.5-3.9-6.6-3.8c-3.6,0.1-7.7,6.9-11.2,5.7
		c-3.2-1.1-0.4-3.1-0.8-5.3c-0.5-3.5-3.8-7.7-7.4-7.8c-3.1-0.1-12.2,4.6-14.5,6.5c-1.9,1.7-2.7,3.8-5.1,4.9c-2.1,1-4.6-0.6-6.6,0.5
		c-5.6,3.1-15.7,9.5-22.2,10.1c-16.7,1.5-33.5,7.2-50.2,4c-1.8,0.2-3.5,0.5-4.7,0.8c11.1-1.4,23.1,4.6,34,3.8
		c5.7-0.4,12.3-3.1,17.6-4.5c12.5-3.3,26.7-6.9,39.6-7.9c8.6-0.6,17.8,3.9,26.1,2.1c6.4-1.4,12.3-4,18.9-4.8
		c27.3-3.2,48.5-0.7,76.6-7.8c13.3-3.4,26.1-8.4,38.7-13.6c6.7-2.8,16.3-9.6,24.1-11.2c3.2-2.3,5-5.8,7.3-8.9c1.9-2.4,4.7-4.8,7-7
		C311.9,308.7,316.4,304.2,315.7,303.6z"/>
	<path id="path175_00000061472491186796790770000005771118952531095736_" fill="#E9E9E9" d="M276,296.2c-0.1,0-0.4,0.1-0.8,0.3
		C275.9,296.4,276.5,296.3,276,296.2z M275.2,296.4c-0.6,0.1-1.3,0.1-1.7,0.2c-2.6,0.4-5.3,0.8-7.8,1.5c-5,1.3-8.9,4.8-14,5.9
		c-4.6,1-7.5-2.1-11.8,0.4c-2.5,1.5-4.4,3.1-7.5,3.3c-0.8,0-2.7-1.3-3.3-1.1c-3.4,1.6-5.1,5.6-9.4,5.9c-3,0.3-5.6-3.2-8.1-2.5
		c-3.9,1.1-6.3,4.8-10.1,6.2c-1.5,0.6-3.1,0.6-4.6,1.1c-2.6,1-5.1,2.6-7.8,3.3c-2.5,0.7-5,0.8-7.5,1.3c-5.3,1-10.2,2.9-15.4,4.2
		c-2.7,0.7-5.5,0.5-8.1,1c-2.3,0.4-4.5,1.2-6.8,1.7c10.5-0.6,47-6.9,49.8-7.6c1.7-0.4,10.8-3.8,10.6,0.2c0,0.6-0.2,1.2-0.4,1.8
		c0.9-0.4,1.8-0.8,2.5-1.2c2.3-1.1,4.9-3.3,7.3-4c2.5-0.7,4.7-0.2,7.1-0.7c3.4-0.7,5.6-5.4,9-6.6c3.5-1.2,7.6-0.2,11.2-0.8
		c5.5-0.9,10.2-3.5,15-6.1C265.1,303.3,272.6,297.7,275.2,296.4z"/>
	<path id="path182_00000175317223546027757360000008813586284012098699_" fill="#E9E9E9" d="M263.9,283.6c1.5-1.8,2.4-4,2.5-6.2
		c0.4-17-15.1-2.2-22.4-9.8c-7.8-8,10.9-16.8,1.8-23c-8.9-6.1-5.1,8-12,10.9c-9.6,4.1-12.4-5.4-16.6-11.3c-0.3-0.5-9.6,2.6-10.3,2.9
		c-6.1,2.2-7.3,7.7-12.3,9.8c-8.7,3.7-18.6,4.3-27.7,7c-1.9,0.6-9.5,4.7-11.9,3.9c0.3-0.2,0.6-0.3,0.9-0.5c3.3-1.6,6.3-4.7,9.7-5.9
		c7-2.5,14.8-2.5,21.2-6.8c3.8-2.5,5.9-6.4,9.3-9.3c1.7-1.5,9.9-6.6,10.9-8.4c0.9-1.6,0.4-3.8,1.5-5.3c1.5-2.4,4.3-3.7,5.8-6.1
		c1.2-1.9-0.5-3.4,0-5c0.6-2.1,5.8-3.6,7.6-3.6c0.7,0-0.2,1.4-0.4,2.1c-0.2,1.1-0.4,2.3-0.6,3.4c-1,4.8-2.8,12.1,2.9,14.8
		c0.9,0.4,2.5,0.9,3.5,0.5c1.9-0.8,2.6-2.9,3.8-4.4c2.2-2.7,5-5.4,8.2-6.9c3.7-1.8,6.5,0.8,10.3,1.1c1,0.1,1.8-0.7,2.7-0.7
		c0.4,0-1.2,2.5-2,4.7c-0.8,2.1-1.7,5.2,0,7.1c2.8,3.2,7.7-1.8,9.8,0.5c0.7,0.7-1.6,3.1-1.9,3.6c-1.9,3.3-4,9-2.4,12.9
		c1.5,3.5,10.5-0.6,13.3-0.7c5.8-0.2-0.3,7.3,1.8,9.7c2.7,3,9-0.7,12-1.4c1.6-0.4,2.9-0.6,4.5-0.6c0.2,0,0.8,0,0.6,0
		c-1.6,0.3-2.5,1.2-3.7,2.2c-0.9,0.8-3.5,2.7-4,3.3c-2,2.1-2.2,2.8-3.7,4.7c-2.9,3.9-5.8,7.9-10.4,9.9
		C265.4,283.3,264.6,283.5,263.9,283.6L263.9,283.6z"/>
	<path id="path181_00000047032027806428357430000012011431230362579861_" fill="#E9E9E9" d="M312.3,270c-2.6,0-5.1-0.6-6.8-2.4
		c-0.1-0.1,4.2,0.8,4.8,0.8c3.8,0.1,7.5-4.6,9.6-7.2c1.9-2.4,7.7-6.6,8.6-8.3c0.3-0.6-3.4-6.3-2.2-6.9c0.2-0.1,8.3,2.9,8.8,3
		c7.2,2,17.2,4.6,24.7,1.7c3.8-1.5,5.5-16.8,14.4-16c2.1,0.2,4.9,1.5,7,0.9c4.6-1.4,4.8-5.1,4.3-9.2c-0.2-1.6,0-4.7-0.8-6.3
		c-1-2.2-6.2-1.8-7.8-1.2c-1.1,0.4-2.1,0.9-3.1,1.4c-0.2,0.1-0.6,0.7-0.6,0.4c0-1.6,9.4-8.2,11-9.3c7.4-5.1,16.1,6.3,24.9,0.4
		c2-1.3,3.7-2.8,4.7-5.1c0.7-1.6,1-4.9-0.5-6.2c-1-0.8-2.6-1-3.7-1.6c-4.1-2.2-8.9-6.4-9.9-11.2c0-0.1,0.2,0.2,0.4,0.2
		c1.7,0.8-0.2-0.2,2.6,1.4c2.6,1.2,5.6,2.6,8.4,3.4c10,2.8,24.9-2,29.3-12.1c1.5-3.5,1.5-9.2,0.5-12.7c-2.1-7.3-7.8-12.2-8.7-19.1
		c6.3,8.9,12.2,19.8,17.4,24.5c3.1,2.8,8.5,2.1,11.4,6.7c8,12.4,11.9,27.5,10.3,42.2c-0.2,1.4-0.6,2.7-1.1,4
		c-1.5,0.4-3.1,0.7-4.7,0.7c-11.8,0.4-32-10.6-42,1c-0.9,1.1-2.2,5.2-3,9.3c-4,0.1-7.9-2-7.9-6.5c0-0.4-0.7,0.4-1,0.6
		c-1.6,1.1-2.9,2.4-4.2,3.9c-3.3,3.8-5.4,9.4-10.9,10.6c-3.1,0.7-5.7-2.3-8.7-1.2c-6.5,2.2-8.1,8.4-12.5,10.7
		c-3.6,1.9-6.1,2.9-10,2.9c-0.6,0-1.3-0.5-1.9-0.3c-0.6,0.2-1.3,2.2-1.8,2.8c-2.3,2.4-6.9,5.9-10.3,6.1c-6.6,0.4-7-4.6-11.3-5
		c-3.4-0.4-6.9-0.5-10.1,1c-1.8,0.9-3.1,2.5-4.9,3.5C321.6,268,316.7,270,312.3,270L312.3,270z"/>
	<path id="path180_00000054232847180269951410000007036105239616262845_" fill="#E9E9E9" d="M288.3,231.4
		C288.2,231.4,288.2,231.3,288.3,231.4c0.2-1.5,1.8-2.6,2.2-4.1c1.2-4.1-0.9-10.5-3.5-13.6c-0.3-0.3-1.6-4.4-1.7-4.4
		c-3.5,0.7-5.3,5.5-9.4,5.5c-11.4,0-15.6-9.3-27.7-5.6c-0.9,0.3-4.5,1.2-6.1,2.3c0.5-0.6,1.1-1.2,1.6-1.7c2.8-2.9,6.8-5.3,10.9-5.9
		c8.6-1.1,24.8,4.1,31.3-3.7c3-3.7,7.3-10.8,5.8-15.9c-0.4-1.4-3.2-2.1-3.2-3.3c0-0.4,2.3-1.7,2.6-2.5c1.7-3.6,0.8-8.6-0.5-12.1
		c-1.8-5-6.2-4.9-10.8-3.5c-0.5,0.2-1.4,0.6-2.1,1c1.9-1.4,3.7-4.1,4.8-5.6c3.9-5.7,3.4-10.9,0.6-15.1c8.9-1.8,22.2,2,25.8,10.8
		c4.1,10-8.1,16.1-7.8,17.4c1.5,6.8,8.8,4.7,3.7,16.4c-2,4.5-10.8,10.7-10,15.8c0.7,4.8,5.1,9.7,5,14.3c-0.1,3.5-2.7,7.4-5.6,10.7
		c-1,0.5-2.1,1-3.2,1.6C289.2,230.9,288.5,231.3,288.3,231.4L288.3,231.4z M277.7,163.9c-0.3,0.2-0.6,0.4-0.9,0.5
		C276.2,164.7,276.8,164.3,277.7,163.9z M242.1,211.5c-0.2,0.3-0.5,0.6-0.7,0.9c-0.1,0.1-0.2,0.4-0.2,0.3
		C241.2,212.2,241.6,211.8,242.1,211.5L242.1,211.5z"/>
</g>
</svg>
