<svg width="100%" height="100%" id="svg" viewBox="0 0 1440 490" xmlns="http://www.w3.org/2000/svg" class="transition duration-300 ease-in-out delay-150"><path d="M 0,500 L 0,93 C 100.38717948717948,103.78846153846153 200.77435897435896,114.57692307692307 276,126 C 351.22564102564104,137.42307692307693 401.2897435897437,149.48076923076923 467,174 C 532.7102564102563,198.51923076923077 614.0666666666666,235.50000000000006 694,256 C 773.9333333333334,276.49999999999994 852.4435897435898,280.5192307692308 936,301 C 1019.5564102564102,321.4807692307692 1108.1589743589743,358.42307692307696 1193,389 C 1277.8410256410257,419.57692307692304 1358.9205128205128,443.78846153846155 1440,468 L 1440,500 L 0,500 Z" stroke="none" stroke-width="0" fill="#ffdd00" fill-opacity="0.4" class="transition-all duration-300 ease-in-out delay-150 path-0" transform="rotate(-180 720 250)"></path><path d="M 0,500 L 0,218 C 64.17435897435897,229.96282051282049 128.34871794871793,241.925641025641 217,248 C 305.65128205128207,254.074358974359 418.7794871794872,254.26025641025643 498,271 C 577.2205128205128,287.73974358974357 622.5333333333333,321.03333333333336 700,347 C 777.4666666666667,372.96666666666664 887.0871794871796,391.6064102564103 976,413 C 1064.9128205128204,434.3935897435897 1133.1179487179486,458.5410256410256 1207,489 C 1280.8820512820514,519.4589743589744 1360.4410256410256,556.2294871794873 1440,593 L 1440,500 L 0,500 Z" stroke="none" stroke-width="0" fill="#ffdd00" fill-opacity="0.53" class="transition-all duration-300 ease-in-out delay-150 path-1" transform="rotate(-180 720 250)"></path><path d="M 0,500 L 0,343 C 80.35897435897436,316.74743589743593 160.71794871794873,290.4948717948718 231,302 C 301.28205128205127,313.5051282051282 361.48717948717945,362.7679487179487 446,389 C 530.5128205128206,415.2320512820513 639.3333333333334,418.4333333333334 731,456 C 822.6666666666666,493.5666666666666 897.1794871794873,565.498717948718 964,604 C 1030.8205128205127,642.501282051282 1089.948717948718,647.5717948717949 1168,661 C 1246.051282051282,674.4282051282051 1343.025641025641,696.2141025641026 1440,718 L 1440,500 L 0,500 Z" stroke="none" stroke-width="0" fill="#ffdd00" fill-opacity="1" class="transition-all duration-300 ease-in-out delay-150 path-2" transform="rotate(-180 720 250)"></path></svg>