<svg width="100%" height="100%" id="svg" viewBox="0 0 1440 590" xmlns="http://www.w3.org/2000/svg" class="transition duration-300 ease-in-out delay-150"><path d="M 0,600 L 0,112 C 115.78947368421055,89.17703349282297 231.5789473684211,66.35406698564593 316,69 C 400.4210526315789,71.64593301435407 453.47368421052624,99.76076555023926 557,115 C 660.5263157894738,130.23923444976074 814.5263157894738,132.60287081339712 913,138 C 1011.4736842105262,143.39712918660288 1054.421052631579,151.82775119617224 1133,148 C 1211.578947368421,144.17224880382776 1325.7894736842104,128.08612440191388 1440,112 L 1440,600 L 0,600 Z" stroke="none" stroke-width="0" fill="#002d6a" fill-opacity="0.4" class="transition-all duration-300 ease-in-out delay-150 path-0" transform="rotate(-180 720 300)"></path><path d="M 0,600 L 0,262 C 101.311004784689,281.0622009569378 202.622009569378,300.1244019138756 282,309 C 361.377990430622,317.8755980861244 418.82296650717694,316.5645933014354 524,311 C 629.177033492823,305.4354066985646 782.0861244019139,295.6172248803828 900,296 C 1017.9138755980861,296.3827751196172 1100.8325358851675,306.96650717703346 1185,303 C 1269.1674641148325,299.03349282296654 1354.5837320574162,280.51674641148327 1440,262 L 1440,600 L 0,600 Z" stroke="none" stroke-width="0" fill="#002d6a" fill-opacity="0.53" class="transition-all duration-300 ease-in-out delay-150 path-1" transform="rotate(-180 720 300)"></path><path d="M 0,600 L 0,412 C 118.04784688995213,425.22488038277515 236.09569377990425,438.44976076555025 335,425 C 433.90430622009575,411.55023923444975 513.665071770335,371.42583732057415 607,367 C 700.334928229665,362.57416267942585 807.244019138756,393.8468899521531 893,407 C 978.755980861244,420.1531100478469 1043.358851674641,415.1866028708134 1131,413 C 1218.641148325359,410.8133971291866 1329.3205741626793,411.4066985645933 1440,412 L 1440,600 L 0,600 Z" stroke="none" stroke-width="0" fill="#002d6a" fill-opacity="1" class="transition-all duration-300 ease-in-out delay-150 path-2" transform="rotate(-180 720 300)"></path></svg>